# xmcd
# Track frame offsets:
# 150
# 24612
# 50530
# 72352
# 93100
# 112397
# 136227
# 160055
# 177700
# 205767
#
# Disc length: 3012 seconds
# Revision: 0
# Processed by: cddbd v1.4PL0 Copyright (c) Steve Scherf et al.
# Submitted via: VisiTrax 2.9.3.171 - For more info visit www.synapsa.com
#
DISCID=8e0bc20a
DTITLE=Baba Blues - Den rasande balansen
DYEAR=1997
DGENRE=Blues
TTITLE0=Ock så kom det en dag till....
TTITLE1=Hela den långa vägen hem
TTITLE2=Smaken av jord
TTITLE3=Tiggarstav
TTITLE4=Soffan du ville slänga
TTITLE5=Den rasande balansen
TTITLE6=Billiga champagnen
TTITLE7=Tänk på ett tal
TTITLE8=Pyromanernas förbund
TTITLE9=Samma gamla dans
EXTD=
EXTT0=
EXTT1=
EXTT2=
EXTT3=
EXTT4=
EXTT5=
EXTT6=
EXTT7=
EXTT8=
EXTT9=
PLAYORDER=
